<?xml version="1.0" standalone="no"?>
<!DOCTYPE svg PUBLIC "-//W3C//DTD SVG 20010904//EN"
 "http://www.w3.org/TR/2001/REC-SVG-20010904/DTD/svg10.dtd">
<svg version="1.0" xmlns="http://www.w3.org/2000/svg"
 width="1000.000000pt" height="1000.000000pt" viewBox="0 0 1000.000000 1000.000000"
 preserveAspectRatio="xMidYMid meet">

<g transform="translate(0.000000,1000.000000) scale(0.100000,-0.100000)"
fill="#000000" stroke="none">
<path d="M5567 7593 c-4 -3 -7 -163 -7 -354 0 -221 -4 -350 -10 -354 -5 -3
-10 -19 -10 -36 0 -24 -4 -29 -25 -29 -27 0 -34 -17 -10 -26 8 -4 15 -18 15
-33 -1 -19 -12 -33 -41 -54 -44 -30 -78 -93 -79 -141 0 -47 38 -115 81 -143
45 -29 51 -53 14 -53 -18 0 -25 -5 -25 -20 0 -13 7 -20 20 -20 20 0 20 -4 14
-337 -3 -186 -7 -344 -10 -350 -2 -7 -19 -13 -39 -13 l-35 0 0 75 0 75 -165 0
-165 0 0 45 c0 41 -2 45 -24 45 -23 0 -25 -5 -28 -47 l-3 -48 -47 -3 -48 -3 0
-315 c0 -307 0 -314 -20 -314 -19 0 -20 7 -20 95 0 76 -3 95 -14 95 -12 0 -15
26 -18 138 -3 159 1 182 37 182 16 0 25 6 25 15 0 9 -9 15 -25 15 -23 0 -25 4
-25 45 0 37 3 45 19 45 22 0 101 115 101 148 0 21 -4 22 -80 22 l-80 0 0 50
c0 66 22 110 55 110 16 0 25 6 25 15 0 13 -44 15 -340 15 l-340 0 0 30 c0 29
-1 30 -47 30 l-48 0 0 78 c0 42 3 82 6 87 4 6 6 26 5 45 -2 55 -34 48 -66 -14
-14 -27 -35 -53 -48 -57 -12 -5 -22 -15 -22 -24 0 -24 -26 -18 -59 15 -16 17
-43 33 -60 36 -24 5 -31 12 -31 29 0 12 7 28 15 35 19 16 19 29 -1 52 -16 17
-14 20 25 63 35 38 40 49 30 61 -10 13 -17 10 -45 -17 l-33 -32 -36 32 c-35
30 -55 33 -55 8 0 -6 19 -31 43 -55 37 -38 40 -44 25 -53 -22 -13 -23 -47 -2
-70 20 -22 12 -49 -16 -49 -11 0 -37 -16 -59 -35 -43 -39 -71 -45 -71 -15 0
13 -7 20 -20 20 -15 0 -27 15 -47 56 -21 44 -30 54 -47 52 -17 -2 -21 -10 -21
-40 0 -21 5 -40 11 -42 7 -3 8 -25 3 -67 -8 -66 1 -119 11 -64 7 40 37 46 46
10 9 -36 -7 -45 -83 -45 l-63 0 0 -30 0 -30 -340 0 c-296 0 -340 -2 -340 -15
0 -9 9 -15 23 -15 30 0 57 -54 57 -115 l0 -45 -85 0 c-75 0 -85 -2 -85 -18 0
-29 83 -152 102 -152 15 0 18 -9 18 -45 0 -41 -2 -45 -25 -45 -34 0 -33 -28 2
-32 14 -2 28 -9 31 -15 3 -10 -17 -13 -77 -13 l-81 0 -2 678 -3 677 -34 -3
c-82 -6 -187 -94 -236 -198 -44 -93 -55 -164 -55 -361 0 -220 -18 -254 -22
-42 l-3 141 -58 23 -58 24 -54 -21 -55 -21 0 -368 0 -369 -35 0 -35 0 0 105 0
104 -57 3 c-51 3 -58 6 -61 26 -3 21 -8 22 -78 22 l-74 0 0 -175 0 -175 -40 0
-40 0 0 235 0 235 -65 0 c-58 0 -65 2 -65 20 0 18 -7 20 -70 20 -63 0 -70 -2
-70 -20 0 -18 -7 -20 -70 -20 l-70 0 0 -195 0 -195 -40 0 -40 0 0 135 0 135
-40 0 -40 0 0 45 0 44 -57 3 c-51 3 -58 6 -61 26 -3 19 -9 22 -48 22 -44 0
-44 0 -44 -35 l0 -35 -75 0 -75 0 0 -45 0 -45 -50 0 -50 0 0 -35 0 -35 -115 0
-115 0 0 -575 0 -575 4580 0 4580 0 0 410 0 410 -50 0 c-47 0 -50 2 -50 25 0
24 -3 25 -60 25 l-60 0 0 30 c0 29 -2 30 -45 30 l-45 0 0 -50 c0 -49 -1 -50
-30 -50 l-30 0 0 -100 0 -100 -35 0 -35 0 0 95 c0 96 12 145 37 145 7 0 13 7
13 15 0 8 -9 15 -20 15 -13 0 -20 7 -20 20 0 11 -4 20 -10 20 -5 0 -10 19 -10
42 0 39 -1 40 -18 25 -32 -29 -42 -21 -42 33 0 43 3 50 20 50 28 0 15 27 -22
46 -17 9 -54 18 -84 21 l-54 6 -1 76 c0 42 -3 69 -6 61 -9 -23 -24 -29 -55
-23 -27 5 -28 4 -28 -37 0 -41 1 -42 27 -35 15 3 32 7 38 8 5 1 11 -10 13 -24
3 -24 0 -27 -40 -31 -54 -6 -118 -36 -118 -54 0 -8 7 -14 15 -14 11 0 15 -12
15 -50 l0 -50 -45 0 -45 0 0 48 0 48 -36 -4 c-26 -3 -34 -8 -30 -19 3 -8 6
-21 6 -29 0 -10 7 -13 25 -8 21 5 25 3 25 -15 0 -18 -6 -21 -44 -21 -39 0 -45
-3 -48 -22 -2 -18 -11 -24 -35 -26 -20 -2 -33 1 -33 8 0 12 -24 40 -34 40 -3
0 -6 -11 -6 -25 0 -24 -2 -25 -65 -25 -36 0 -65 3 -65 8 0 4 -7 15 -15 26 -13
17 -15 17 -29 3 -9 -9 -16 -20 -16 -26 0 -6 -13 -11 -29 -11 -27 0 -29 3 -34
52 -4 28 -11 56 -17 62 -16 16 -12 47 8 62 16 13 16 15 0 28 -10 7 -18 18 -18
25 0 6 -7 11 -15 11 -8 0 -15 -5 -15 -11 0 -7 -8 -18 -17 -25 -17 -13 -17 -15
0 -28 17 -14 24 -60 8 -54 -6 2 -23 28 -38 58 -89 171 -329 171 -416 0 -15
-30 -32 -56 -37 -58 -17 -6 -11 40 8 54 16 13 16 15 0 28 -10 7 -18 18 -18 25
0 6 -7 11 -15 11 -8 0 -15 -5 -15 -11 0 -7 -8 -18 -17 -25 -17 -13 -17 -15 0
-28 18 -14 23 -46 8 -61 -6 -6 -14 -32 -18 -60 -7 -45 -11 -50 -36 -53 -15 -2
-27 2 -27 8 0 6 -7 18 -15 26 -13 14 -17 14 -30 0 -8 -8 -15 -19 -15 -25 0 -7
-25 -11 -65 -11 -56 0 -65 2 -65 18 0 10 -3 21 -6 25 -8 8 -34 -18 -34 -33 0
-7 -13 -10 -32 -8 -25 2 -34 8 -36 26 -3 21 -8 22 -98 22 l-94 0 0 50 c0 38 4
50 15 50 8 0 15 4 15 8 0 21 -43 44 -100 55 -57 11 -61 13 -58 37 2 19 8 24
23 21 47 -9 50 -7 53 33 l3 39 -35 -6 c-27 -4 -38 -2 -46 11 -7 12 -9 -3 -10
-54 l0 -71 -54 -6 c-30 -3 -67 -12 -84 -21 -37 -19 -50 -46 -22 -46 17 0 20
-7 20 -50 0 -54 -14 -65 -44 -34 -15 14 -16 12 -16 -20 0 -38 -18 -49 -27 -16
-4 15 -14 20 -39 20 -27 0 -34 -4 -34 -20 0 -19 -7 -20 -90 -20 l-90 0 0 -40
c0 -29 4 -40 15 -40 12 0 15 -17 15 -95 l0 -95 -29 0 c-28 0 -30 3 -33 43 -2
35 -7 43 -25 45 -18 3 -23 10 -23 33 l0 29 -170 0 -170 0 0 -30 c0 -27 -3 -30
-29 -30 -23 0 -30 -5 -33 -22 -2 -15 -11 -24 -25 -26 -22 -3 -23 0 -23 57 l0
61 -75 0 -75 0 0 -65 0 -65 -49 0 -49 0 -6 153 c-3 83 -8 268 -11 410 -6 254
-5 257 15 257 13 0 20 7 20 20 0 15 -7 20 -25 20 -38 0 -30 22 19 57 86 61 99
176 29 253 -19 22 -43 42 -54 45 -23 8 -27 60 -4 69 23 9 18 26 -9 26 -35 0
-38 30 -43 420 -2 189 -7 348 -11 352 -5 5 -11 5 -15 1z m-1856 -1326 c-1 -4
-1 -23 -1 -42 0 -29 -4 -35 -20 -35 -19 0 -20 4 -14 38 4 20 9 41 11 45 6 9
25 5 24 -6z m325 -32 c10 -43 10 -45 -13 -45 -21 0 -23 5 -23 45 0 30 4 45 13
45 7 0 17 -20 23 -45z m94 -10 c0 -36 -12 -43 -39 -26 -12 8 -13 14 -3 35 17
39 42 34 42 -9z m-115 -745 l0 -265 -155 0 -155 0 -3 268 -2 268 157 -3 158
-3 0 -265z m-740 0 l0 -245 -90 0 -90 0 -3 248 -2 248 92 -3 93 -3 0 -245z
m303 3 l-3 -248 -90 0 -90 0 -3 235 c-1 129 0 240 2 247 4 9 32 13 96 13 l90
0 -2 -247z m737 -3 l0 -245 -90 0 -90 0 -3 235 c-1 129 0 240 3 248 3 9 27 12
92 10 l88 -3 0 -245z m310 0 l0 -245 -83 -3 c-53 -2 -89 1 -98 9 -11 9 -14 55
-14 234 0 123 3 231 6 240 5 13 21 15 98 13 l91 -3 0 -245z m2347 193 c35 -32
23 -43 -47 -43 -69 0 -79 8 -48 42 20 22 70 23 95 1z m208 -137 c0 -146 -8
-179 -37 -155 -18 16 -19 295 0 302 33 11 37 -4 37 -147z m108 -4 c2 -147 2
-152 -18 -152 -19 0 -20 6 -20 148 0 82 3 152 7 156 22 21 28 -11 31 -152z
m110 146 c18 -18 17 -282 -1 -297 -29 -24 -37 9 -37 154 0 155 5 176 38 143z
m120 -146 c2 -147 2 -152 -18 -152 -19 0 -20 6 -20 148 0 82 3 152 7 156 22
21 28 -11 31 -152z m850 0 c2 -147 2 -152 -18 -152 -19 0 -20 6 -20 148 0 82
3 152 7 156 22 21 28 -11 31 -152z m110 146 c18 -18 17 -282 -1 -297 -29 -24
-37 9 -37 154 0 155 5 176 38 143z m120 -146 c2 -147 2 -152 -18 -152 -19 0
-20 6 -20 148 0 82 3 152 7 156 22 21 28 -11 31 -152z m110 146 c8 -8 12 -56
12 -148 0 -137 -7 -165 -36 -153 -11 4 -14 37 -14 152 0 162 5 182 38 149z
m264 -5 c36 -32 23 -43 -53 -43 -73 0 -75 2 -41 43 19 22 70 22 94 0z m-1972
-153 l0 -100 -75 0 -75 0 0 100 0 100 75 0 75 0 0 -100z m1990 0 l0 -100 -70
0 -70 0 0 100 0 100 70 0 70 0 0 -100z m-1165 -90 c0 -135 -1 -145 -19 -148
-36 -7 -46 24 -46 146 0 124 9 155 43 150 21 -3 22 -7 22 -148z m129 134 c9
-24 7 -257 -3 -272 -4 -8 -19 -12 -32 -10 -24 3 -24 4 -27 137 -1 74 0 141 2
148 7 18 53 16 60 -3z m121 -134 l0 -145 -25 0 -25 0 -3 134 c-1 74 0 141 3
149 3 7 15 12 27 10 23 -3 23 -5 23 -148z"/>
<path d="M7150 5855 c0 -15 6 -25 14 -25 8 0 21 -3 30 -6 13 -5 16 1 16 25 0
28 -3 31 -30 31 -25 0 -30 -4 -30 -25z"/>
<path d="M420 4635 l0 -85 4580 0 4580 0 0 85 0 85 -4580 0 -4580 0 0 -85z"/>
<path d="M1920 3971 l0 -91 50 0 50 0 0 -310 0 -310 -55 0 -55 0 0 -86 0 -85
353 3 352 3 55 26 c108 50 161 131 162 245 0 87 -37 165 -97 203 l-43 27 35
29 c78 62 99 187 49 290 -30 60 -68 92 -146 121 -38 14 -99 18 -377 22 l-333
4 0 -91z m575 -115 c53 -53 37 -154 -29 -181 -20 -9 -67 -15 -106 -15 l-70 0
0 110 0 110 90 0 c82 0 93 -2 115 -24z m16 -384 c59 -53 48 -161 -21 -197 -19
-10 -58 -15 -115 -15 l-85 0 0 120 0 120 95 0 c89 0 96 -2 126 -28z"/>
<path d="M3030 3970 l0 -90 45 0 45 0 0 -310 0 -310 -50 0 -50 0 0 -85 0 -85
445 0 445 0 0 170 0 170 -95 0 -95 0 0 -85 0 -85 -160 0 -160 0 0 120 0 120
145 0 145 0 0 86 0 86 -145 -4 -145 -3 0 108 0 107 155 0 155 0 0 -80 0 -80
90 0 90 0 0 163 0 164 -262 6 c-145 4 -338 7 -430 7 l-168 0 0 -90z"/>
<path d="M4100 3975 l0 -85 45 0 45 0 0 -315 0 -315 -45 0 -45 0 0 -85 0 -85
225 0 225 0 0 85 0 85 -45 0 -45 0 0 105 0 106 61 -3 61 -3 67 -152 c79 -177
91 -197 134 -223 37 -23 143 -27 227 -9 l50 11 0 73 0 73 -58 7 -59 7 -62 131
c-40 85 -58 133 -50 136 26 8 92 77 111 115 29 56 35 157 15 227 -31 105 -115
170 -244 189 -37 5 -191 10 -340 10 l-273 0 0 -85z m535 -109 c35 -23 49 -54
48 -108 -1 -88 -52 -128 -163 -128 l-60 0 0 131 0 132 76 -6 c42 -3 86 -12 99
-21z"/>
<path d="M6280 3976 l0 -85 48 -3 47 -3 3 -312 2 -313 -50 0 -50 0 0 -85 0
-85 235 0 235 0 0 85 0 85 -50 0 -50 0 0 315 0 315 50 0 51 0 -3 83 -3 82
-232 3 -233 2 0 -84z"/>
<path d="M7752 4053 l-113 -4 3 -82 3 -82 48 -3 47 -3 0 -212 c0 -129 -4 -207
-9 -201 -5 5 -54 81 -108 169 -55 88 -135 217 -179 287 l-79 127 -198 1 -198
0 3 -82 3 -83 48 -3 47 -3 0 -310 0 -309 -50 0 -50 0 0 -85 0 -85 220 0 220 0
0 85 0 85 -45 0 -45 0 0 225 c0 124 2 225 4 225 2 0 19 -24 36 -52 18 -29 107
-169 198 -310 l165 -258 133 0 134 0 0 395 0 395 45 0 45 0 0 90 0 90 -107 -2
c-60 -1 -159 -4 -221 -5z"/>
<path d="M5210 3965 l0 -85 50 0 50 0 0 -310 0 -310 -50 0 -50 0 0 -85 0 -85
440 0 440 0 0 175 0 175 -95 0 -95 0 0 -90 0 -90 -160 0 -160 0 0 310 0 310
50 0 50 0 0 85 0 85 -235 0 -235 0 0 -85z"/>
<path d="M3239 2757 c-19 -12 -44 -42 -57 -67 -21 -40 -23 -57 -20 -151 3 -93
6 -110 28 -142 36 -52 86 -77 154 -77 63 0 112 17 139 47 14 17 17 35 15 94
l-3 74 -77 3 c-65 2 -78 0 -78 -13 0 -12 13 -15 60 -15 l60 0 0 -60 c0 -53 -3
-61 -26 -77 -39 -25 -122 -28 -163 -5 -56 30 -71 71 -71 188 0 89 3 105 23
135 28 41 60 59 110 59 53 0 96 -25 113 -66 15 -36 44 -47 44 -16 0 30 -36 78
-73 95 -52 25 -136 22 -178 -6z"/>
<path d="M3740 2550 l0 -230 140 0 c133 0 140 1 140 20 0 19 -7 20 -125 20
l-125 0 0 90 0 90 110 0 c103 0 110 1 110 20 0 19 -7 20 -110 20 l-111 0 3 83
3 82 123 3 c99 2 122 5 122 17 0 13 -24 15 -140 15 l-140 0 0 -230z"/>
<path d="M4230 2549 c0 -214 1 -230 18 -227 15 3 17 17 20 106 l3 102 75 0
c121 0 154 -31 154 -146 0 -41 13 -64 38 -64 10 0 12 6 7 18 -4 9 -10 49 -14
88 -6 72 -19 99 -51 109 -15 5 -13 10 16 39 29 29 34 41 34 80 0 36 -6 52 -27
76 -34 38 -79 49 -190 50 l-83 0 0 -231z m228 175 c34 -23 45 -60 31 -101 -15
-45 -57 -63 -149 -63 l-70 0 0 90 0 90 83 0 c59 0 89 -4 105 -16z"/>
<path d="M4780 2550 c0 -196 2 -230 15 -230 12 0 15 31 17 198 l3 197 84 -197
c46 -109 87 -198 91 -198 14 0 26 24 99 200 41 96 77 179 81 183 4 5 7 -79 6
-185 -1 -176 1 -193 17 -196 16 -3 17 13 17 227 l0 231 -24 0 c-21 0 -32 -20
-107 -200 -49 -118 -86 -194 -91 -187 -4 7 -42 96 -85 200 -68 166 -80 187
-100 187 l-23 0 0 -230z"/>
<path d="M5582 2763 c-17 -32 -162 -420 -162 -432 0 -7 7 -11 16 -9 9 2 26 28
39 63 l22 60 106 3 105 3 22 -66 c17 -50 26 -65 41 -65 10 0 19 2 19 4 0 3
-148 396 -165 439 -4 9 -13 17 -21 17 -7 0 -17 -8 -22 -17z m67 -158 c23 -61
41 -113 41 -117 0 -5 -40 -8 -90 -8 l-90 0 34 93 c49 133 56 150 61 146 2 -3
22 -54 44 -114z"/>
<path d="M5990 2549 c0 -214 1 -230 18 -227 15 3 18 23 22 192 l5 190 125
-190 c71 -107 133 -190 143 -192 16 -3 17 13 17 228 0 215 -1 231 -17 228 -16
-3 -19 -22 -23 -190 l-5 -188 -125 190 c-83 126 -131 190 -142 190 -17 0 -18
-18 -18 -231z"/>
<path d="M6518 2763 c6 -10 42 -73 81 -141 l70 -123 3 -87 c3 -73 6 -87 21
-90 15 -3 17 6 17 81 l0 85 80 139 c44 76 80 141 80 146 0 4 -8 7 -17 7 -12 0
-40 -39 -88 -125 -38 -68 -72 -122 -75 -119 -3 3 -34 58 -70 122 -51 90 -71
118 -89 120 -19 3 -21 1 -13 -15z"/>
<path d="M1900 2755 c0 -13 68 -15 555 -15 487 0 555 2 555 15 0 13 -68 15
-555 15 -487 0 -555 -2 -555 -15z"/>
<path d="M6990 2755 c0 -13 68 -15 555 -15 487 0 555 2 555 15 0 13 -68 15
-555 15 -487 0 -555 -2 -555 -15z"/>
<path d="M1907 2633 c-4 -3 -7 -12 -7 -20 0 -11 99 -13 556 -13 524 0 555 1
552 18 -3 16 -38 17 -549 20 -300 1 -549 -1 -552 -5z"/>
<path d="M6990 2620 c0 -20 6 -20 556 -20 524 0 555 1 552 18 -3 16 -39 17
-556 20 -547 2 -552 2 -552 -18z"/>
<path d="M1900 2485 c0 -13 68 -15 555 -15 487 0 555 2 555 15 0 13 -68 15
-555 15 -487 0 -555 -2 -555 -15z"/>
<path d="M6990 2485 c0 -13 68 -15 555 -15 487 0 555 2 555 15 0 13 -68 15
-555 15 -487 0 -555 -2 -555 -15z"/>
<path d="M1907 2363 c-4 -3 -7 -12 -7 -20 0 -11 99 -13 556 -13 524 0 555 1
552 18 -3 16 -38 17 -549 20 -300 1 -549 -1 -552 -5z"/>
<path d="M6990 2350 c0 -20 6 -20 556 -20 524 0 555 1 552 18 -3 16 -39 17
-556 20 -547 2 -552 2 -552 -18z"/>
</g>
</svg>
